<mxfile host="app.diagrams.net" modified="2023-06-05T14:16:04.127Z" agent="Mozilla/5.0 (Windows NT 10.0; Win64; x64) AppleWebKit/537.36 (KHTML, like Gecko) Chrome/114.0.0.0 Safari/537.36" etag="GHqXhpaqgzOKGeRrX_gn" version="21.3.7" type="device">
  <diagram name="Page-1" id="13e1069c-82ec-6db2-03f1-153e76fe0fe0">
    <mxGraphModel dx="1469" dy="647" grid="1" gridSize="10" guides="1" tooltips="1" connect="1" arrows="1" fold="1" page="1" pageScale="1" pageWidth="1100" pageHeight="850" background="none" math="0" shadow="0">
      <root>
        <mxCell id="0" />
        <mxCell id="1" parent="0" />
        <mxCell id="r90ltT_Q9tdW3Xzcblut-41" value="" style="rounded=0;whiteSpace=wrap;html=1;strokeColor=#FF3333;fillColor=#FFFFFF;movable=0;resizable=0;rotatable=0;deletable=0;editable=0;locked=1;connectable=0;" vertex="1" parent="1">
          <mxGeometry x="590" y="550" width="870" height="260" as="geometry" />
        </mxCell>
        <mxCell id="r90ltT_Q9tdW3Xzcblut-40" value="" style="rounded=0;whiteSpace=wrap;html=1;strokeColor=#FF3333;fillColor=#FFFFFF;movable=0;resizable=0;rotatable=0;deletable=0;editable=0;locked=1;connectable=0;" vertex="1" parent="1">
          <mxGeometry x="590" y="260" width="870" height="260" as="geometry" />
        </mxCell>
        <mxCell id="r90ltT_Q9tdW3Xzcblut-7" value="" style="endArrow=none;dashed=1;html=1;dashPattern=1 3;strokeWidth=2;rounded=0;" edge="1" parent="1">
          <mxGeometry width="50" height="50" relative="1" as="geometry">
            <mxPoint x="960" y="80" as="sourcePoint" />
            <mxPoint x="960" y="830" as="targetPoint" />
          </mxGeometry>
        </mxCell>
        <mxCell id="r90ltT_Q9tdW3Xzcblut-8" value="BACKEND" style="rounded=0;whiteSpace=wrap;html=1;" vertex="1" parent="1">
          <mxGeometry x="900" y="170" width="120" height="60" as="geometry" />
        </mxCell>
        <mxCell id="r90ltT_Q9tdW3Xzcblut-11" value="" style="endArrow=none;dashed=1;html=1;dashPattern=1 3;strokeWidth=2;rounded=0;" edge="1" parent="1">
          <mxGeometry width="50" height="50" relative="1" as="geometry">
            <mxPoint x="730.5" y="90" as="sourcePoint" />
            <mxPoint x="730" y="850" as="targetPoint" />
          </mxGeometry>
        </mxCell>
        <mxCell id="r90ltT_Q9tdW3Xzcblut-12" value="" style="endArrow=none;dashed=1;html=1;dashPattern=1 3;strokeWidth=2;rounded=0;" edge="1" parent="1">
          <mxGeometry width="50" height="50" relative="1" as="geometry">
            <mxPoint x="1200" y="80" as="sourcePoint" />
            <mxPoint x="1200" y="830" as="targetPoint" />
          </mxGeometry>
        </mxCell>
        <mxCell id="r90ltT_Q9tdW3Xzcblut-9" value="DBMS" style="rounded=0;whiteSpace=wrap;html=1;" vertex="1" parent="1">
          <mxGeometry x="1140" y="170" width="120" height="60" as="geometry" />
        </mxCell>
        <mxCell id="r90ltT_Q9tdW3Xzcblut-10" value="FRONTEND" style="rounded=0;whiteSpace=wrap;html=1;" vertex="1" parent="1">
          <mxGeometry x="670" y="170" width="120" height="60" as="geometry" />
        </mxCell>
        <mxCell id="r90ltT_Q9tdW3Xzcblut-13" value="LIST OF CUSTOMERS&lt;br&gt;+ Total $" style="rounded=0;whiteSpace=wrap;html=1;" vertex="1" parent="1">
          <mxGeometry x="670" y="280" width="120" height="60" as="geometry" />
        </mxCell>
        <mxCell id="r90ltT_Q9tdW3Xzcblut-14" value="DETAIL ORDERS&lt;br&gt;BY ORDERS+ $" style="rounded=0;whiteSpace=wrap;html=1;" vertex="1" parent="1">
          <mxGeometry x="670" y="580" width="120" height="60" as="geometry" />
        </mxCell>
        <mxCell id="r90ltT_Q9tdW3Xzcblut-15" value="LIST OF CUSTOMERS" style="rounded=0;whiteSpace=wrap;html=1;" vertex="1" parent="1">
          <mxGeometry x="900" y="280" width="120" height="60" as="geometry" />
        </mxCell>
        <mxCell id="r90ltT_Q9tdW3Xzcblut-16" value="QUERY DATABASE FOR INFORMATION" style="rounded=0;whiteSpace=wrap;html=1;" vertex="1" parent="1">
          <mxGeometry x="1140" y="280" width="120" height="60" as="geometry" />
        </mxCell>
        <mxCell id="r90ltT_Q9tdW3Xzcblut-19" value="" style="shape=flexArrow;endArrow=classic;html=1;rounded=0;" edge="1" parent="1">
          <mxGeometry width="50" height="50" relative="1" as="geometry">
            <mxPoint x="800" y="319.5" as="sourcePoint" />
            <mxPoint x="890" y="319.5" as="targetPoint" />
          </mxGeometry>
        </mxCell>
        <mxCell id="r90ltT_Q9tdW3Xzcblut-20" value="Http request" style="edgeLabel;html=1;align=center;verticalAlign=middle;resizable=0;points=[];" vertex="1" connectable="0" parent="r90ltT_Q9tdW3Xzcblut-19">
          <mxGeometry x="0.3175" relative="1" as="geometry">
            <mxPoint x="-29" y="-20" as="offset" />
          </mxGeometry>
        </mxCell>
        <mxCell id="r90ltT_Q9tdW3Xzcblut-21" value="" style="shape=flexArrow;endArrow=classic;html=1;rounded=0;" edge="1" parent="1">
          <mxGeometry width="50" height="50" relative="1" as="geometry">
            <mxPoint x="1030" y="320" as="sourcePoint" />
            <mxPoint x="1120" y="320" as="targetPoint" />
          </mxGeometry>
        </mxCell>
        <mxCell id="r90ltT_Q9tdW3Xzcblut-22" value="JDBC JPA" style="edgeLabel;html=1;align=center;verticalAlign=middle;resizable=0;points=[];" vertex="1" connectable="0" parent="r90ltT_Q9tdW3Xzcblut-21">
          <mxGeometry x="0.3175" relative="1" as="geometry">
            <mxPoint x="-29" y="-20" as="offset" />
          </mxGeometry>
        </mxCell>
        <mxCell id="r90ltT_Q9tdW3Xzcblut-25" value="" style="shape=flexArrow;endArrow=classic;html=1;rounded=0;exitX=0.583;exitY=0.833;exitDx=0;exitDy=0;exitPerimeter=0;" edge="1" parent="1">
          <mxGeometry width="50" height="50" relative="1" as="geometry">
            <mxPoint x="1120" y="440" as="sourcePoint" />
            <mxPoint x="1040" y="440" as="targetPoint" />
          </mxGeometry>
        </mxCell>
        <mxCell id="r90ltT_Q9tdW3Xzcblut-26" value="JDBC JPA" style="edgeLabel;html=1;align=center;verticalAlign=middle;resizable=0;points=[];" vertex="1" connectable="0" parent="r90ltT_Q9tdW3Xzcblut-25">
          <mxGeometry x="0.3175" relative="1" as="geometry">
            <mxPoint x="33" y="-20" as="offset" />
          </mxGeometry>
        </mxCell>
        <mxCell id="r90ltT_Q9tdW3Xzcblut-27" value="" style="shape=flexArrow;endArrow=classic;html=1;rounded=0;exitX=0.583;exitY=0.833;exitDx=0;exitDy=0;exitPerimeter=0;" edge="1" parent="1">
          <mxGeometry width="50" height="50" relative="1" as="geometry">
            <mxPoint x="880" y="450" as="sourcePoint" />
            <mxPoint x="800" y="450" as="targetPoint" />
          </mxGeometry>
        </mxCell>
        <mxCell id="r90ltT_Q9tdW3Xzcblut-28" value="Http repsonse" style="edgeLabel;html=1;align=center;verticalAlign=middle;resizable=0;points=[];" vertex="1" connectable="0" parent="r90ltT_Q9tdW3Xzcblut-27">
          <mxGeometry x="0.3175" relative="1" as="geometry">
            <mxPoint x="23" y="-25" as="offset" />
          </mxGeometry>
        </mxCell>
        <mxCell id="r90ltT_Q9tdW3Xzcblut-29" value="CREATE TABLE&lt;br&gt;WITH ALL CUSTOMERS" style="rounded=0;whiteSpace=wrap;html=1;" vertex="1" parent="1">
          <mxGeometry x="680" y="430" width="120" height="60" as="geometry" />
        </mxCell>
        <mxCell id="r90ltT_Q9tdW3Xzcblut-30" value="CREATE JSON RESPONSE" style="rounded=0;whiteSpace=wrap;html=1;" vertex="1" parent="1">
          <mxGeometry x="890" y="425" width="120" height="60" as="geometry" />
        </mxCell>
        <mxCell id="r90ltT_Q9tdW3Xzcblut-31" value="RETURN QUERY&lt;br&gt;FROM DATABASE" style="rounded=0;whiteSpace=wrap;html=1;" vertex="1" parent="1">
          <mxGeometry x="1140" y="420" width="120" height="60" as="geometry" />
        </mxCell>
        <mxCell id="r90ltT_Q9tdW3Xzcblut-33" value="" style="endArrow=none;dashed=1;html=1;dashPattern=1 3;strokeWidth=2;rounded=0;" edge="1" parent="1">
          <mxGeometry width="50" height="50" relative="1" as="geometry">
            <mxPoint x="1390.5" y="90" as="sourcePoint" />
            <mxPoint x="1390" y="840" as="targetPoint" />
          </mxGeometry>
        </mxCell>
        <mxCell id="r90ltT_Q9tdW3Xzcblut-34" value="" style="shape=flexArrow;endArrow=classic;startArrow=classic;html=1;rounded=0;" edge="1" parent="1">
          <mxGeometry width="100" height="100" relative="1" as="geometry">
            <mxPoint x="1350" y="310.5" as="sourcePoint" />
            <mxPoint x="1280" y="310" as="targetPoint" />
          </mxGeometry>
        </mxCell>
        <mxCell id="r90ltT_Q9tdW3Xzcblut-35" value="" style="shape=flexArrow;endArrow=classic;startArrow=classic;html=1;rounded=0;" edge="1" parent="1">
          <mxGeometry width="100" height="100" relative="1" as="geometry">
            <mxPoint x="1340" y="446.5" as="sourcePoint" />
            <mxPoint x="1270" y="446" as="targetPoint" />
          </mxGeometry>
        </mxCell>
        <mxCell id="r90ltT_Q9tdW3Xzcblut-32" value="DATABASE" style="rounded=0;whiteSpace=wrap;html=1;" vertex="1" parent="1">
          <mxGeometry x="1340" y="170" width="120" height="60" as="geometry" />
        </mxCell>
        <mxCell id="r90ltT_Q9tdW3Xzcblut-39" value="DB" style="rounded=0;whiteSpace=wrap;html=1;" vertex="1" parent="1">
          <mxGeometry x="1350" y="290" width="80" height="500" as="geometry" />
        </mxCell>
        <mxCell id="r90ltT_Q9tdW3Xzcblut-42" value="" style="shape=flexArrow;endArrow=classic;html=1;rounded=0;" edge="1" parent="1">
          <mxGeometry width="50" height="50" relative="1" as="geometry">
            <mxPoint x="800" y="609.5" as="sourcePoint" />
            <mxPoint x="890" y="609.5" as="targetPoint" />
          </mxGeometry>
        </mxCell>
        <mxCell id="r90ltT_Q9tdW3Xzcblut-43" value="Http request" style="edgeLabel;html=1;align=center;verticalAlign=middle;resizable=0;points=[];" vertex="1" connectable="0" parent="r90ltT_Q9tdW3Xzcblut-42">
          <mxGeometry x="0.3175" relative="1" as="geometry">
            <mxPoint x="-29" y="-20" as="offset" />
          </mxGeometry>
        </mxCell>
        <mxCell id="r90ltT_Q9tdW3Xzcblut-44" value="LIST OF ORDERS" style="rounded=0;whiteSpace=wrap;html=1;" vertex="1" parent="1">
          <mxGeometry x="890" y="580" width="120" height="60" as="geometry" />
        </mxCell>
        <mxCell id="r90ltT_Q9tdW3Xzcblut-47" value="QUERY DATABASE FOR INFORMATION" style="rounded=0;whiteSpace=wrap;html=1;" vertex="1" parent="1">
          <mxGeometry x="1130" y="580" width="120" height="60" as="geometry" />
        </mxCell>
        <mxCell id="r90ltT_Q9tdW3Xzcblut-48" value="RETURN QUERY&lt;br&gt;FROM DATABASE" style="rounded=0;whiteSpace=wrap;html=1;" vertex="1" parent="1">
          <mxGeometry x="1130" y="720" width="120" height="60" as="geometry" />
        </mxCell>
        <mxCell id="r90ltT_Q9tdW3Xzcblut-49" value="" style="shape=flexArrow;endArrow=classic;html=1;rounded=0;exitX=0.583;exitY=0.833;exitDx=0;exitDy=0;exitPerimeter=0;" edge="1" parent="1">
          <mxGeometry width="50" height="50" relative="1" as="geometry">
            <mxPoint x="1110" y="749.5" as="sourcePoint" />
            <mxPoint x="1030" y="749.5" as="targetPoint" />
          </mxGeometry>
        </mxCell>
        <mxCell id="r90ltT_Q9tdW3Xzcblut-50" value="JDBC JPA" style="edgeLabel;html=1;align=center;verticalAlign=middle;resizable=0;points=[];" vertex="1" connectable="0" parent="r90ltT_Q9tdW3Xzcblut-49">
          <mxGeometry x="0.3175" relative="1" as="geometry">
            <mxPoint x="33" y="-20" as="offset" />
          </mxGeometry>
        </mxCell>
        <mxCell id="r90ltT_Q9tdW3Xzcblut-51" value="" style="shape=flexArrow;endArrow=classic;html=1;rounded=0;" edge="1" parent="1">
          <mxGeometry width="50" height="50" relative="1" as="geometry">
            <mxPoint x="1030" y="609.5" as="sourcePoint" />
            <mxPoint x="1120" y="609.5" as="targetPoint" />
            <Array as="points">
              <mxPoint x="1060" y="609.5" />
            </Array>
          </mxGeometry>
        </mxCell>
        <mxCell id="r90ltT_Q9tdW3Xzcblut-52" value="JDBC JPA" style="edgeLabel;html=1;align=center;verticalAlign=middle;resizable=0;points=[];" vertex="1" connectable="0" parent="r90ltT_Q9tdW3Xzcblut-51">
          <mxGeometry x="0.3175" relative="1" as="geometry">
            <mxPoint x="-29" y="-20" as="offset" />
          </mxGeometry>
        </mxCell>
        <mxCell id="r90ltT_Q9tdW3Xzcblut-53" value="CREATE TABLE&lt;br&gt;WITH ALL ORDERS OF A CUSTOMER" style="rounded=0;whiteSpace=wrap;html=1;" vertex="1" parent="1">
          <mxGeometry x="660" y="705" width="120" height="60" as="geometry" />
        </mxCell>
        <mxCell id="r90ltT_Q9tdW3Xzcblut-54" value="CREATE JSON RESPONSE" style="rounded=0;whiteSpace=wrap;html=1;" vertex="1" parent="1">
          <mxGeometry x="890" y="705" width="120" height="60" as="geometry" />
        </mxCell>
        <mxCell id="r90ltT_Q9tdW3Xzcblut-55" value="" style="shape=flexArrow;endArrow=classic;html=1;rounded=0;exitX=0.583;exitY=0.833;exitDx=0;exitDy=0;exitPerimeter=0;" edge="1" parent="1">
          <mxGeometry width="50" height="50" relative="1" as="geometry">
            <mxPoint x="880" y="734.5" as="sourcePoint" />
            <mxPoint x="800" y="734.5" as="targetPoint" />
          </mxGeometry>
        </mxCell>
        <mxCell id="r90ltT_Q9tdW3Xzcblut-56" value="Http repsonse" style="edgeLabel;html=1;align=center;verticalAlign=middle;resizable=0;points=[];" vertex="1" connectable="0" parent="r90ltT_Q9tdW3Xzcblut-55">
          <mxGeometry x="0.3175" relative="1" as="geometry">
            <mxPoint x="23" y="-25" as="offset" />
          </mxGeometry>
        </mxCell>
        <mxCell id="r90ltT_Q9tdW3Xzcblut-57" value="CUSTOMERS&lt;br&gt;+ TOTAL SELLS" style="text;html=1;strokeColor=none;fillColor=none;align=center;verticalAlign=middle;whiteSpace=wrap;rounded=0;" vertex="1" parent="1">
          <mxGeometry x="470" y="290" width="60" height="30" as="geometry" />
        </mxCell>
        <mxCell id="r90ltT_Q9tdW3Xzcblut-58" value="ORDERS" style="text;html=1;strokeColor=none;fillColor=none;align=center;verticalAlign=middle;whiteSpace=wrap;rounded=0;" vertex="1" parent="1">
          <mxGeometry x="480" y="560" width="60" height="30" as="geometry" />
        </mxCell>
      </root>
    </mxGraphModel>
  </diagram>
</mxfile>
